<svg xmlns="http://www.w3.org/2000/svg" xmlns:xlink="http://www.w3.org/1999/xlink" version="1.1" x="0px" y="0px" viewBox="0 0 64 80" enable-background="new 0 0 64 64" xml:space="preserve"><g><g><path d="M56.429,51.743l-24-40c-0.181-0.301-0.677-0.301-0.857,0l-24,40c-0.093,0.154-0.095,0.347-0.006,0.503    C7.654,52.403,7.82,52.5,8,52.5h48c0.18,0,0.347-0.097,0.436-0.254C56.523,52.09,56.521,51.897,56.429,51.743z M8.883,51.5    L32,12.972L55.117,51.5H8.883z"/><path d="M31.5,26v10c0,0.276,0.224,0.5,0.5,0.5s0.5-0.224,0.5-0.5V26c0-0.276-0.224-0.5-0.5-0.5S31.5,25.724,31.5,26z"/><path d="M32,41.5c-0.276,0-0.5,0.224-0.5,0.5v2c0,0.276,0.224,0.5,0.5,0.5s0.5-0.224,0.5-0.5v-2C32.5,41.724,32.276,41.5,32,41.5z    "/></g></g><text x="0" y="79" fill="#000000" font-size="5px" font-weight="bold" font-family="'Helvetica Neue', Helvetica, Arial-Unicode, Arial, Sans-serif">Created by Ralf Schmitzer</text><text x="0" y="84" fill="#000000" font-size="5px" font-weight="bold" font-family="'Helvetica Neue', Helvetica, Arial-Unicode, Arial, Sans-serif">from the Noun Project</text></svg>