<svg xmlns="http://www.w3.org/2000/svg" xmlns:xlink="http://www.w3.org/1999/xlink" version="1.1" x="0px" y="0px" viewBox="0 0 512 640" style="enable-background:new 0 0 512 512;" xml:space="preserve"><title>Stay at home</title><g><path d="M182.9,221L182.9,221L182.9,221c-19.8,0-35.9,16.1-35.8,35.8c0,19.8,16.1,35.8,35.8,35.8h0c19.8,0,35.8-16.1,35.8-35.8   C218.8,237,202.7,221,182.9,221z M182.9,280.7L182.9,280.7L182.9,280.7c-13.2,0-23.9-10.7-23.9-23.8c0-13.2,10.7-23.9,23.9-23.9h0   c13.2,0,23.8,10.7,23.8,23.8C206.8,270,196.1,280.7,182.9,280.7z"/><path d="M327.2,312.1c0.1,0,0.3,0,0.4,0h0c13.5,0,25.9-7.6,32-19.7h4.3c11.9,0,21.5-9.6,21.5-21.5s-9.6-21.5-21.5-21.5h-12.7   c-6.5-5.8-14.9-8.9-23.7-8.9h0c-19.8-0.1-35.9,15.9-36,35.7C291.5,295.9,307.4,312,327.2,312.1z M363.9,261.3   c5.3,0,9.5,4.3,9.5,9.5c0,5.3-4.3,9.5-9.5,9.5h-0.7c0.2-1.4,0.2-2.8,0.2-4.2c0-5.1-1.1-10.2-3.3-14.9H363.9z M327.3,252.4   c0.1,0,0.2,0,0.3,0h0c13.2,0,23.8,10.6,23.9,23.8c0,6.3-2.5,12.4-7,16.9l0,0c-4.5,4.5-10.6,7-16.9,7h0c-13.2,0.1-23.9-10.5-24-23.7   S314.1,252.5,327.3,252.4z"/><path d="M494.8,171.1L494.8,171.1l-61.5-40.2V66c0-3.3-2.7-6-6-6h-44c-3.3,0-6,2.7-6,6v28.2l-118-77.1c-2-1.3-4.6-1.3-6.6,0   L17.2,171.1c-2.8,1.8-3.6,5.5-1.7,8.3c1.1,1.7,3,2.7,5,2.7h58.2v307.7c0,3.3,2.7,6,6,6h342.5c3.3,0,6-2.7,6-6V182.1h58.2   c3.3,0,6-2.7,6-6C497.5,174.1,496.5,172.2,494.8,171.1z M389.3,72h32v51l-32-20.9V72z M225.9,483.8h-70.3l-4.7-81.6   c-0.2-3.2-2.8-5.7-6-5.7l-15.3,0l0-48.5c0.1-18.6,15.2-33.7,33.8-33.8l39.5,0h0c10.1,0,19.7,4.6,26.1,12.4   c-7.6,14.9-1.7,33,13.2,40.6c2.4,1.2,5,2.2,7.7,2.7v8.5c-25.2,0.6-45.3,21.1-45.3,46.3l0,36.8c0,3.3,2.7,6,6,6l15.4,0L225.9,483.8z    M237.8,340.3c0-10.1,8.2-18.2,18.2-18.2h0c10.1,0,18.2,8.1,18.2,18.2c0,10.1-8.2,18.2-18.2,18.2h0   C246,358.5,237.8,350.4,237.8,340.3z M273.8,461.4l-0.3,22.4h-35.6l0.4-22.2c0.1-3.3-2.6-6-5.9-6.1c0,0-0.1,0-0.1,0l-15.5,0l0-30.8   c0-19,15.4-34.3,34.3-34.3l9.8,0h0c18.9,0,34.3,15.3,34.4,34.3l0,30.8l-15.5,0C276.5,455.5,273.8,458.1,273.8,461.4z M360.2,411.8   l-4.2,72h-70.5l0.2-16.3l15.6,0c3.3,0,6-2.7,6-6l0-36.8c-0.1-25.1-20.2-45.6-45.3-46.2v-8.5c13.6-2.7,23.6-14.4,24.2-28.2   c0.2-0.2,0.5-0.4,0.7-0.6c6-4.8,13.4-7.5,21.1-7.5l39.5,0h0c18.7,0,33.8,15.1,33.8,33.8l0,38.8l-15.3,0   C363,406.2,360.4,408.7,360.2,411.8z M427.3,170.1c-3.3,0-6,2.7-6,6v307.7H368l3.9-65.6l15.6,0c3.3,0,6-2.7,6-6l0-44.8   c-0.1-25.3-20.6-45.7-45.8-45.7h0l-39.5,0c-8.5,0-16.9,2.4-24.2,7c-4.7-11.2-15.7-18.4-27.9-18.5h0c-7,0-13.9,2.4-19.3,7   c-8.7-9.5-20.9-14.9-33.8-14.9h0l-39.5,0c-25.3,0.1-45.7,20.5-45.8,45.8l0,54.5c0,3.3,2.7,6,6,6l15.6,0l4.4,75.3H90.7V176.1   c0-3.3-2.7-6-6-6H40.7L256,29.4l215.3,140.7L427.3,170.1z"/></g><text x="0" y="527" fill="#000000" font-size="5px" font-weight="bold" font-family="'Helvetica Neue', Helvetica, Arial-Unicode, Arial, Sans-serif">Created by Icongeek26</text><text x="0" y="532" fill="#000000" font-size="5px" font-weight="bold" font-family="'Helvetica Neue', Helvetica, Arial-Unicode, Arial, Sans-serif">from the Noun Project</text></svg>