<svg xmlns="http://www.w3.org/2000/svg" xmlns:xlink="http://www.w3.org/1999/xlink" version="1.1" x="0px" y="0px" viewBox="0 0 48 60" style="enable-background:new 0 0 48 48;" xml:space="preserve"><path d="M10,44.5h28c0.28,0,0.5-0.22,0.5-0.5V4c0-0.28-0.22-0.5-0.5-0.5H18c-0.07,0-0.13,0.01-0.19,0.04  c-0.06,0.03-0.12,0.06-0.16,0.11l-8,8c-0.05,0.05-0.08,0.1-0.11,0.16C9.51,11.87,9.5,11.93,9.5,12v32C9.5,44.28,9.72,44.5,10,44.5z   M17.5,5.21v6.29h-6.29L17.5,5.21z M10.5,12.5H18c0.28,0,0.5-0.22,0.5-0.5V4.5h19v39h-27V12.5z"/><path d="M34,15.5H14c-0.28,0-0.5,0.22-0.5,0.5v8c0,0.28,0.22,0.5,0.5,0.5h20c0.28,0,0.5-0.22,0.5-0.5v-8  C34.5,15.72,34.28,15.5,34,15.5z M33.5,23.5h-19v-7h19V23.5z"/><path d="M34,27.5H14c-0.28,0-0.5,0.22-0.5,0.5s0.22,0.5,0.5,0.5h20c0.28,0,0.5-0.22,0.5-0.5S34.28,27.5,34,27.5z"/><path d="M34,31.5H14c-0.28,0-0.5,0.22-0.5,0.5s0.22,0.5,0.5,0.5h20c0.28,0,0.5-0.22,0.5-0.5S34.28,31.5,34,31.5z"/><path d="M34,35.5H14c-0.28,0-0.5,0.22-0.5,0.5s0.22,0.5,0.5,0.5h20c0.28,0,0.5-0.22,0.5-0.5S34.28,35.5,34,35.5z"/><path d="M34,39.5H14c-0.28,0-0.5,0.22-0.5,0.5s0.22,0.5,0.5,0.5h20c0.28,0,0.5-0.22,0.5-0.5S34.28,39.5,34,39.5z"/><text x="0" y="63" fill="#000000" font-size="5px" font-weight="bold" font-family="'Helvetica Neue', Helvetica, Arial-Unicode, Arial, Sans-serif">Created by businessicons13</text><text x="0" y="68" fill="#000000" font-size="5px" font-weight="bold" font-family="'Helvetica Neue', Helvetica, Arial-Unicode, Arial, Sans-serif">from the Noun Project</text></svg>