<svg xmlns="http://www.w3.org/2000/svg" xmlns:xlink="http://www.w3.org/1999/xlink" version="1.1" baseProfile="basic" x="0px" y="0px" viewBox="0 0 90 112.5" xml:space="preserve"><path d="M76.95,90H13.595c-0.829,0-1.5-0.672-1.5-1.5V26.646H2.276c-0.684,0-1.281-0.463-1.452-1.125  c-0.171-0.662,0.127-1.356,0.726-1.688L44.273,0.188c0.452-0.25,1.001-0.25,1.453,0l42.725,23.646  c0.599,0.331,0.896,1.025,0.726,1.688s-0.769,1.125-1.452,1.125H78.45V88.5C78.45,89.328,77.778,90,76.95,90z M15.095,87H75.45  V25.146c0-0.829,0.672-1.5,1.5-1.5h4.967L45,3.214L8.084,23.646h5.511c0.829,0,1.5,0.671,1.5,1.5V87z"/><path d="M45,54.14c-3.491,0-6.331-2.84-6.331-6.331c0-3.491,2.84-6.331,6.331-6.331c3.491,0,6.331,2.84,6.331,6.331  C51.331,51.3,48.491,54.14,45,54.14z M45,44.478c-1.836,0-3.331,1.494-3.331,3.331c0,1.837,1.494,3.331,3.331,3.331  c1.837,0,3.331-1.494,3.331-3.331C48.331,45.972,46.837,44.478,45,44.478z"/><path d="M52.858,71.546H37.142c-0.829,0-1.5-0.672-1.5-1.5v-6.699c0-3.952,3.215-7.168,7.168-7.168h4.38  c3.952,0,7.168,3.216,7.168,7.168v6.699C54.358,70.874,53.687,71.546,52.858,71.546z M38.642,68.546h12.716v-5.199  c0-2.298-1.87-4.168-4.168-4.168h-4.38c-2.298,0-4.168,1.87-4.168,4.168V68.546z"/><path d="M45,82.001c-1.524,0-3.054-0.136-4.545-0.404c-0.815-0.147-1.357-0.927-1.21-1.742c0.146-0.815,0.929-1.351,1.742-1.211  c1.839,0.331,3.753,0.43,5.604,0.303c0.813-0.069,1.544,0.564,1.601,1.392c0.058,0.826-0.565,1.543-1.392,1.601  C46.205,81.98,45.605,82.001,45,82.001z M52.564,80.784c-0.629,0-1.215-0.397-1.424-1.027c-0.261-0.786,0.165-1.635,0.951-1.896  c1.776-0.59,3.479-1.404,5.058-2.42c0.696-0.446,1.624-0.246,2.073,0.45c0.448,0.697,0.246,1.625-0.45,2.073  c-1.791,1.151-3.721,2.074-5.735,2.744C52.881,80.76,52.721,80.784,52.564,80.784z M35.009,79.828c-0.209,0-0.422-0.044-0.625-0.137  c-1.928-0.885-3.746-2.012-5.402-3.351c-0.645-0.521-0.745-1.466-0.224-2.109c0.52-0.646,1.464-0.744,2.109-0.225  c1.463,1.183,3.067,2.178,4.768,2.958c0.753,0.346,1.083,1.235,0.738,1.989C36.121,79.504,35.578,79.828,35.009,79.828z   M62.552,74.365c-0.366,0-0.733-0.134-1.022-0.403c-0.606-0.564-0.64-1.514-0.074-2.119c1.281-1.375,2.387-2.904,3.286-4.548  c0.398-0.728,1.309-0.991,2.036-0.595c0.727,0.397,0.993,1.309,0.595,2.035c-1.019,1.862-2.271,3.596-3.724,5.152  C63.354,74.205,62.953,74.365,62.552,74.365z M25.776,72.365c-0.457,0-0.908-0.208-1.202-0.602  c-1.275-1.705-2.332-3.563-3.142-5.523c-0.316-0.766,0.048-1.644,0.813-1.96c0.766-0.315,1.643,0.048,1.959,0.813  c0.715,1.729,1.647,3.369,2.772,4.873c0.496,0.663,0.361,1.604-0.303,2.1C26.404,72.268,26.089,72.365,25.776,72.365z M68.25,63.948  c-0.122,0-0.247-0.015-0.371-0.046c-0.803-0.205-1.288-1.021-1.084-1.824c0.461-1.809,0.694-3.681,0.694-5.566  c0-0.127,0.016-0.25,0.046-0.368c-0.034-0.117-0.055-0.241-0.059-0.37c-0.061-1.882-0.354-3.746-0.875-5.539  c-0.231-0.796,0.227-1.628,1.022-1.858c0.794-0.234,1.627,0.227,1.858,1.022c0.59,2.034,0.924,4.146,0.992,6.279  c0.005,0.144-0.011,0.283-0.045,0.416c0.039,0.133,0.06,0.272,0.06,0.418c0,2.135-0.265,4.257-0.786,6.307  C69.53,63.497,68.92,63.948,68.25,63.948z M21.245,61.394c-0.735,0-1.377-0.541-1.483-1.291c-0.167-1.181-0.251-2.389-0.251-3.591  c0-0.919,0.05-1.849,0.148-2.761c0.088-0.824,0.831-1.42,1.651-1.331c0.824,0.088,1.42,0.828,1.331,1.651  c-0.086,0.807-0.13,1.628-0.13,2.44c0,1.063,0.075,2.13,0.222,3.173c0.116,0.82-0.456,1.578-1.276,1.694  C21.385,61.389,21.314,61.394,21.245,61.394z M22.531,49.588c-0.175,0-0.354-0.03-0.527-0.096c-0.776-0.291-1.168-1.155-0.877-1.932  c0.746-1.987,1.742-3.88,2.961-5.627c0.474-0.678,1.409-0.845,2.089-0.371c0.679,0.474,0.845,1.409,0.371,2.089  c-1.076,1.541-1.955,3.21-2.612,4.964C23.709,49.217,23.138,49.588,22.531,49.588z M65.67,45.825c-0.513,0-1.012-0.263-1.292-0.736  c-0.955-1.614-2.11-3.107-3.434-4.438c-0.584-0.587-0.582-1.537,0.006-2.122c0.585-0.583,1.536-0.583,2.121,0.005  c1.499,1.507,2.807,3.198,3.889,5.026c0.422,0.713,0.186,1.633-0.527,2.055C66.193,45.758,65.93,45.825,65.67,45.825z M29.327,39.85  c-0.421,0-0.839-0.176-1.136-0.52c-0.542-0.627-0.472-1.574,0.155-2.116c1.61-1.391,3.39-2.576,5.288-3.524  c0.742-0.37,1.642-0.068,2.012,0.672c0.37,0.741,0.069,1.642-0.672,2.012c-1.675,0.836-3.246,1.882-4.667,3.11  C30.023,39.73,29.674,39.85,29.327,39.85z M57.293,37.407c-0.263,0-0.527-0.068-0.769-0.212c-1.613-0.964-3.341-1.722-5.137-2.252  c-0.794-0.235-1.247-1.069-1.013-1.864c0.235-0.795,1.069-1.247,1.864-1.013c2.035,0.602,3.995,1.461,5.824,2.554  c0.711,0.425,0.943,1.346,0.519,2.057C58.301,37.146,57.803,37.407,57.293,37.407z M39.948,34.556c-0.692,0-1.314-0.482-1.465-1.186  c-0.173-0.81,0.342-1.607,1.152-1.781c2.065-0.443,4.217-0.625,6.331-0.548c0.828,0.031,1.474,0.727,1.443,1.555  c-0.03,0.829-0.732,1.466-1.554,1.443c-1.864-0.073-3.768,0.092-5.59,0.483C40.158,34.544,40.052,34.556,39.948,34.556z"/><text x="0" y="105" fill="#000000" font-size="5px" font-weight="bold" font-family="'Helvetica Neue', Helvetica, Arial-Unicode, Arial, Sans-serif">Created by iconpacks</text><text x="0" y="110" fill="#000000" font-size="5px" font-weight="bold" font-family="'Helvetica Neue', Helvetica, Arial-Unicode, Arial, Sans-serif">from the Noun Project</text></svg>