<svg height='100px' width='100px'  fill="#000000" xmlns="http://www.w3.org/2000/svg" xmlns:xlink="http://www.w3.org/1999/xlink" version="1.1" x="0px" y="0px" viewBox="0 0 64 64" style="enable-background:new 0 0 64 64;" xml:space="preserve"><g><path d="M63.64,26.23l-31-26c-0.37-0.31-0.91-0.31-1.29,0l-31,26C0.13,26.42,0,26.7,0,27v3c0,0.55,0.45,1,1,1h8v32   c0,0.55,0.45,1,1,1h18h8h18c0.55,0,1-0.45,1-1V31h8c0.55,0,1-0.45,1-1v-3C64,26.7,63.87,26.42,63.64,26.23z M28,26   c0-2.21,1.79-4,4-4s4,1.79,4,4s-1.79,4-4,4S28,28.21,28,26z M36,40c-0.55,0-1,0.45-1,1v5h-6v-5c0-0.55-0.45-1-1-1s-1,0.45-1,1v5h-1   c-0.55,0-1-0.45-1-1v-6c0-3.86,3.14-7,7-7s7,3.14,7,7v6c0,0.55-0.45,1-1,1h-1v-5C37,40.45,36.55,40,36,40z M33,62V51   c0-0.55-0.45-1-1-1s-1,0.45-1,1v11h-2V48h6v14H33z M37,62V48h1c1.65,0,3-1.35,3-3v-6c0-3.67-2.21-6.83-5.37-8.23   C37.07,29.67,38,27.95,38,26c0-3.31-2.69-6-6-6s-6,2.69-6,6c0,1.95,0.93,3.67,2.37,4.77C25.21,32.17,23,35.33,23,39v6   c0,1.65,1.35,3,3,3h1v14H11V30.47l21-17.18l21,17.18V62H37z M62,29h-7.64L32.63,11.23c-0.37-0.3-0.9-0.3-1.27,0L9.64,29H2v-1.53   L32,2.3l30,25.16V29z"></path></g></svg>