<svg xmlns="http://www.w3.org/2000/svg" data-name="Слой 1" viewBox="0 0 128 160" x="0px" y="0px"><title>ic_home</title><path d="M111.27,57.45l-46-37.61a2,2,0,0,0-2.56,0l-46,38.61a2,2,0,0,0-.24,2.82,2,2,0,0,0,2.82.24l10.71-9V98a2,2,0,0,0,2,2H96a2,2,0,0,0,2-2V51.77l10.73,8.78a2,2,0,1,0,2.54-3.1ZM94,96H34V49.18L64,24,94,48.5Z"/><path d="M64,0a64,64,0,1,0,64,64A64.07,64.07,0,0,0,64,0Zm0,124a60,60,0,1,1,60-60A60.07,60.07,0,0,1,64,124Z"/><text x="0" y="143" fill="#000000" font-size="5px" font-weight="bold" font-family="'Helvetica Neue', Helvetica, Arial-Unicode, Arial, Sans-serif">Created by LAFS</text><text x="0" y="148" fill="#000000" font-size="5px" font-weight="bold" font-family="'Helvetica Neue', Helvetica, Arial-Unicode, Arial, Sans-serif">from the Noun Project</text></svg>