<svg xmlns="http://www.w3.org/2000/svg" xmlns:xlink="http://www.w3.org/1999/xlink" version="1.1" x="0px" y="0px" viewBox="0 0 512 640" style="enable-background:new 0 0 512 512;" xml:space="preserve"><g><g><g><g><g><path d="M256,303.978c-11.918,0-20.906,9.39-20.906,21.843s8.988,21.843,20.906,21.843c12.114,0,20.906-9.187,20.906-21.843       C276.906,312.96,268.309,303.978,256,303.978z"/></g><g><path d="M270.565,276.184l6.139-107.983c0.679-11.951-8.786-22.017-20.703-22.017h0c-11.917,0-21.383,10.066-20.703,22.017       l6.138,107.983c0.441,7.756,6.831,13.818,14.565,13.818h0C263.734,290.003,270.124,283.94,270.565,276.184z"/></g></g></g><path d="M240.504,486.203C104.832,422.751,50.872,272.239,54.139,130.984c0.168-7.3,5.273-13.556,12.399-15.198    c38.264-8.824,68.242-36.342,67.948-77.743C134.449,29.309,141.739,22,150.488,22h211.087c8.747,0,16.036,7.306,16.001,16.039    c-0.847,38.95,29.093,71.355,66.939,77.549c7.628,1.248,13.271,7.762,13.41,15.477c2.518,139.437-58.87,284.587-185.607,353.814    C266.983,487.793,257.244,494.031,240.504,486.203z M253.51,457.008c1.106,0.49,2.363,0.433,3.45-0.16    C296.776,435.099,424.632,349.122,426,144.117c-41.371-11.918-73.701-47.181-79.494-90.165H165.557    c-5.798,43.016-38.169,78.295-79.579,90.19C85.754,266.726,133.423,403.681,253.51,457.008    C254.616,457.499,236.608,449.503,253.51,457.008z"/></g></g><text x="0" y="527" fill="#000000" font-size="5px" font-weight="bold" font-family="'Helvetica Neue', Helvetica, Arial-Unicode, Arial, Sans-serif">Created by SBTS</text><text x="0" y="532" fill="#000000" font-size="5px" font-weight="bold" font-family="'Helvetica Neue', Helvetica, Arial-Unicode, Arial, Sans-serif">from the Noun Project</text></svg>